<?xml version="1.0" encoding="UTF-8"?>
<!-- Generator: Adobe Illustrator 27.2.0, SVG Export Plug-In . SVG Version: 6.00 Build 0)  -->
<svg xmlns="http://www.w3.org/2000/svg" xmlns:xlink="http://www.w3.org/1999/xlink" version="1.1" id="Capa_1" x="0px" y="0px" viewBox="0 0 512.005 512.005" style="enable-background:new 0 0 512.005 512.005;" xml:space="preserve" width="512" height="512">
<g>
	<g>
		<path d="M101.637,256.367c-0.386,0-0.775-0.02-1.167-0.062c-27.676-2.92-43.655-11.661-47.491-25.978    c-5.047-18.836,14.013-39.594,58.269-63.46c5.347-2.882,12.02-0.886,14.903,4.461c2.883,5.347,0.886,12.02-4.461,14.903    c-41.896,22.592-48.094,36.037-47.461,38.401c0.521,1.94,6.663,7.484,28.55,9.793c6.041,0.638,10.422,6.052,9.785,12.094    C111.967,252.169,107.194,256.367,101.637,256.367z"/>
		<path d="M438.91,157.514c-2.732,0-5.468-1.012-7.599-3.048c-4.392-4.198-4.549-11.161-0.351-15.552    c6.134-6.417,7.171-10.37,6.816-11.693c-0.617-2.301-13.338-11.304-60.608-9.931c-6.109,0.162-11.138-4.604-11.315-10.677    c-0.176-6.073,4.604-11.138,10.677-11.314c49.693-1.437,77.447,7.384,82.497,26.229c2.758,10.295-1.335,21.259-12.164,32.588    C444.702,156.375,441.809,157.514,438.91,157.514z"/>
		<path style="fill:#33CCCC;" d="M256.003,326.357c-82.948,0-150.431-67.483-150.431-150.431    c7.563-199.293,293.329-199.238,300.862,0.002C406.433,258.874,338.95,326.357,256.003,326.357z M256.003,47.496    c-70.817,0-128.431,57.614-128.431,128.431c6.457,170.147,250.431,170.1,256.861-0.002    C384.433,105.11,326.819,47.496,256.003,47.496z"/>
		<path style="fill:#33CCCC;" d="M210.528,182.032c-18.421,0-33.408-14.987-33.408-33.408c1.68-44.26,65.144-44.248,66.817,0    C243.937,167.045,228.949,182.032,210.528,182.032z M210.528,137.215c-6.291,0-11.408,5.118-11.408,11.409    c0.573,15.114,22.245,15.109,22.817,0C221.937,142.333,216.818,137.215,210.528,137.215z"/>
		<path style="fill:#33CCCC;" d="M327.211,149.688c-14.579-0.539-14.576-21.463-0.007-22h0.007    C341.79,128.229,341.779,149.153,327.211,149.688z"/>
		<path style="fill:#33CCCC;" d="M284.386,275.176c-14.579-0.539-14.576-21.463-0.007-22h0.007    C298.965,253.717,298.954,274.64,284.386,275.176z"/>
		<path d="M124.052,257.433c-8.516,0-16.41-0.371-23.583-1.128c-6.041-0.638-10.422-6.052-9.785-12.094    c0.638-6.042,6.053-10.417,12.094-9.785c73.666,11.603,283.827-45.913,328.181-95.516c4.198-4.388,11.162-4.546,15.553-0.347    c4.391,4.198,4.548,11.161,0.351,15.552C401.199,205.295,207.886,260.552,124.052,257.433z"/>
	</g>
	<path d="M511.628,391.291c-1.572-5.867-7.599-9.353-13.472-7.778l-8.454,2.265l-7.933-28.964   c-1.599-5.837-7.611-9.288-13.457-7.719l-140.142,37.551l137.73-83.162c5.2-3.14,6.871-9.902,3.73-15.102   c-3.14-5.202-9.902-6.872-15.102-3.731l-198.524,119.87L57.593,284.653c-5.201-3.143-11.962-1.474-15.103,3.727   c-3.142,5.2-1.473,11.962,3.727,15.103l137.686,83.181L43.693,349.096c-2.843-0.762-5.873-0.352-8.412,1.136   c-2.539,1.489-4.375,3.933-5.098,6.786l-7.328,28.908l-9.006-2.413c-5.872-1.577-11.9,1.91-13.472,7.778   c-1.572,5.868,1.91,11.9,7.778,13.472l209.581,56.157c14.497,32.817,62.046,32.802,76.532,0l209.581-56.157   C509.718,403.191,513.2,397.159,511.628,391.291z M468.451,391.472l-175.677,47.072c-3.193-6.038-7.667-11.713-13.119-16.123   l183.785-49.245L468.451,391.472z M48.77,373.232l184.143,49.341c-5.215,4.424-9.512,10.118-12.634,16.253L44.108,391.621   L48.77,373.232z M256.003,463.706c-7.636,0-14.476-4.377-17.805-11.009c3.161-8.683,10.524-17.138,17.805-17.138   c7.512,0,15.092,7.708,18.467,15.669C271.461,458.677,264.189,463.706,256.003,463.706z"/>
</g>















</svg>
