<svg id="Layer_1" enable-background="new 0 0 64 64" viewBox="0 0 64 64" xmlns="http://www.w3.org/2000/svg"><g><path d="m54.4 45.7-8.8-6.7c-.8-.6-1.8 0-1.8.9v13.4c0 .9 1.1 1.5 1.8.9l8.8-6.7c.6-.4.6-1.3 0-1.8z" fill="#e92b3a"/><path d="m28.3 37.6h-3.3c-4.3 0-7.9-3.5-7.9-7.9v-13.8c0-4.3 3.5-7.9 7.9-7.9h3.3c4.3 0 7.9 3.5 7.9 7.9v13.8c0 4.4-3.5 7.9-7.9 7.9z" fill="#0c88da"/><path d="m41.4 23.8c0 2.9.1 5.6-.9 8.4-1.3 3.6-4.1 6.5-7.5 8.1-7.2 3.5-15.9.2-19.4-6.8-1.5-3.1-1.5-6.3-1.5-9.7 0-1.9-3-1.9-3 0 0 3.4 0 6.7 1.3 10 1.7 4.1 4.9 7.5 9 9.4 1.9.8 3.9 1.3 5.8 1.5v8.3c-1.5 0-3 0-4.5 0-.7 0-1.3 0-2 0-1.9 0-1.9 3 0 3h13.8 2c1.9 0 1.9-3 0-3-2.1 0-4.2 0-6.2 0v-8.4c5.8-.5 11.3-3.8 14.1-9.3 1.9-3.7 2-7.5 2-11.5 0-1.9-3-1.9-3 0z" fill="#0370c8"/><g fill="#fff"><path d="m18.8 19.4h13.8 1.9c1.9 0 1.9-3 0-3-4.6 0-9.2 0-13.8 0-.6 0-1.3 0-1.9 0-1.9 0-1.9 3 0 3z"/><path d="m18.8 24.3h13.8 2c1.9 0 1.9-3 0-3-4.6 0-9.2 0-13.8 0-.7 0-1.3 0-2 0-1.9 0-1.9 3 0 3z"/><path d="m34.5 26.2c-4.6 0-9.2 0-13.8 0-.6 0-1.3 0-1.9 0-1.9 0-1.9 3 0 3h13.8 1.9c1.9 0 1.9-3 0-3z"/></g></g></svg>